<mxfile host="app.diagrams.net" agent="Mozilla/5.0 (X11; Linux x86_64; rv:128.0) Gecko/20100101 Firefox/128.0" version="27.1.6">
  <diagram name="Page-1" id="5z--jGXaVwOe__EkuLlI">
    <mxGraphModel dx="987" dy="558" grid="1" gridSize="10" guides="1" tooltips="1" connect="1" arrows="1" fold="1" page="1" pageScale="1" pageWidth="827" pageHeight="1169" math="0" shadow="0">
      <root>
        <mxCell id="0" />
        <mxCell id="1" parent="0" />
        <mxCell id="KsHvrcX7beHajzNwPQLE-1" value="" style="fillColor=#ffffff;strokeColor=#dddddd;shadow=1;strokeWidth=1;rounded=1;absoluteArcSize=1;arcSize=2;" parent="1" vertex="1">
          <mxGeometry x="210" y="80" width="430" height="300" as="geometry" />
        </mxCell>
        <mxCell id="KsHvrcX7beHajzNwPQLE-2" value="Virtual&#xa;Private Cloud" style="editableCssRules=.*;html=1;fontColor=#999999;shape=image;verticalLabelPosition=middle;verticalAlign=middle;labelPosition=right;align=left;spacingLeft=20;part=1;points=[];imageAspect=0;image=data:image/svg+xml,PHN2ZyB4bWxucz0iaHR0cDovL3d3dy53My5vcmcvMjAwMC9zdmciIHhtbG5zOnY9Imh0dHBzOi8vdmVjdGEuaW8vbmFubyIgd2lkdGg9IjIwIiBoZWlnaHQ9IjIwIiB2aWV3Qm94PSIwIDAgMjAgMjAiPiYjeGE7CTxzdHlsZSB0eXBlPSJ0ZXh0L2NzcyI+JiN4YTsJLnN0MHtmaWxsOiM0Mjg1ZjQ7fSYjeGE7CS5zdDF7ZmlsbDojNjY5ZGY2O30mI3hhOwkuc3Qye2ZpbGw6I2FlY2JmYTt9JiN4YTsJPC9zdHlsZT4mI3hhOwk8cGF0aCBjbGFzcz0ic3QyIiBkPSJNMTQgMGg2djZoLTZ6Ii8+JiN4YTsJPHBhdGggY2xhc3M9InN0MSIgZD0iTTE3IDBoM3Y2aC0zeiIvPiYjeGE7CTxwYXRoIGNsYXNzPSJzdDIiIGQ9Ik0xNCAxNGg2djZoLTZ6Ii8+JiN4YTsJPHBhdGggY2xhc3M9InN0MSIgZD0iTTE3IDE0aDN2NmgtM3oiLz4mI3hhOwk8cGF0aCBjbGFzcz0ic3QyIiBkPSJNMCAwaDZ2NkgweiIvPiYjeGE7CTxwYXRoIGNsYXNzPSJzdDEiIGQ9Ik0zIDBoM3Y2SDN6Ii8+JiN4YTsJPHBhdGggY2xhc3M9InN0MiIgZD0iTTAgMTRoNnY2SDB6Ii8+JiN4YTsJPGcgY2xhc3M9InN0MSI+JiN4YTsJCTxwYXRoIGQ9Ik0zIDE0aDN2Nkgzek02IDJoOHYySDZ6Ii8+JiN4YTsJCTxwYXRoIGQ9Ik02IDE2aDh2Mkg2ek0xNiA2aDJ2OGgtMnpNMiA2aDJ2OEgyeiIvPiYjeGE7CTwvZz4mI3hhOwk8cGF0aCBjbGFzcz0ic3QwIiBkPSJNMiA2aDJ2Mkgyem0xNCAwaDJ2MmgtMnpNNiAyaDJ2Mkg2em0wIDE0aDJ2Mkg2eiIvPiYjeGE7PC9zdmc+;" parent="KsHvrcX7beHajzNwPQLE-1" vertex="1">
          <mxGeometry width="30" height="30" relative="1" as="geometry">
            <mxPoint x="15" y="15" as="offset" />
          </mxGeometry>
        </mxCell>
        <mxCell id="KsHvrcX7beHajzNwPQLE-5" value="&lt;div&gt;europe-west1&lt;/div&gt;" style="fillColor=none;strokeColor=#147EBA;dashed=1;verticalAlign=top;fontStyle=0;fontColor=#147EBA;whiteSpace=wrap;html=1;" parent="KsHvrcX7beHajzNwPQLE-1" vertex="1">
          <mxGeometry x="130" y="76.25" width="267.55" height="147.5" as="geometry" />
        </mxCell>
        <mxCell id="KsHvrcX7beHajzNwPQLE-6" style="edgeStyle=orthogonalEdgeStyle;rounded=0;orthogonalLoop=1;jettySize=auto;html=1;exitX=0.5;exitY=1;exitDx=0;exitDy=0;" parent="KsHvrcX7beHajzNwPQLE-1" source="KsHvrcX7beHajzNwPQLE-5" target="KsHvrcX7beHajzNwPQLE-5" edge="1">
          <mxGeometry relative="1" as="geometry" />
        </mxCell>
        <mxCell id="KsHvrcX7beHajzNwPQLE-9" value="Cloud&#xa;NAT" style="sketch=0;html=1;verticalAlign=top;labelPosition=center;verticalLabelPosition=bottom;align=center;spacingTop=-6;fontSize=11;fontStyle=1;fontColor=#999999;shape=image;aspect=fixed;imageAspect=0;image=data:image/svg+xml,PHN2ZyB4bWxuczppbmtzY2FwZT0iaHR0cDovL3d3dy5pbmtzY2FwZS5vcmcvbmFtZXNwYWNlcy9pbmtzY2FwZSIgeG1sbnM6c29kaXBvZGk9Imh0dHA6Ly9zb2RpcG9kaS5zb3VyY2Vmb3JnZS5uZXQvRFREL3NvZGlwb2RpLTAuZHRkIiB4bWxucz0iaHR0cDovL3d3dy53My5vcmcvMjAwMC9zdmciIHhtbG5zOnN2Zz0iaHR0cDovL3d3dy53My5vcmcvMjAwMC9zdmciIHdpZHRoPSI5OS45OTczMDIyMDQ4OTI5NiIgaGVpZ2h0PSI5Ny44ODA4NTM5MDQyOTYzMyIgdmlld0JveD0iLTAuMDQ1Nzc2MzY3MTg3NSAxLjA4Nzc4ODU4MTg0ODE0NDUgOTkuOTk3Mjk5MTk0MzM1OTQgOTcuODgwODQ0MTE2MjEwOTQiIHZlcnNpb249IjEuMSIgaWQ9InN2ZzUiIGlua3NjYXBlOnZlcnNpb249IjEuMSAoYzY4ZTIyYzM4NywgMjAyMS0wNS0yMykiIHNvZGlwb2RpOmRvY25hbWU9ImNsb3VkX25hdC5zdmciPiYjeGE7ICA8c29kaXBvZGk6bmFtZWR2aWV3IGlkPSJuYW1lZHZpZXc3IiBwYWdlY29sb3I9IiNmZmZmZmYiIGJvcmRlcmNvbG9yPSIjNjY2NjY2IiBib3JkZXJvcGFjaXR5PSIxLjAiIGlua3NjYXBlOnBhZ2VzaGFkb3c9IjIiIGlua3NjYXBlOnBhZ2VvcGFjaXR5PSIwLjAiIGlua3NjYXBlOnBhZ2VjaGVja2VyYm9hcmQ9IjAiIGlua3NjYXBlOmRvY3VtZW50LXVuaXRzPSJtbSIgc2hvd2dyaWQ9ImZhbHNlIiBpbmtzY2FwZTp6b29tPSIwLjU3OTMzNzQ0IiBpbmtzY2FwZTpjeD0iLTQyLjI4OTY4OSIgaW5rc2NhcGU6Y3k9IjI1NC42MDExOSIgaW5rc2NhcGU6d2luZG93LXdpZHRoPSIxOTIwIiBpbmtzY2FwZTp3aW5kb3ctaGVpZ2h0PSIxMDE3IiBpbmtzY2FwZTp3aW5kb3cteD0iLTgiIGlua3NjYXBlOndpbmRvdy15PSItOCIgaW5rc2NhcGU6d2luZG93LW1heGltaXplZD0iMSIgaW5rc2NhcGU6Y3VycmVudC1sYXllcj0ibGF5ZXIxIiBmaXQtbWFyZ2luLXRvcD0iMCIgZml0LW1hcmdpbi1sZWZ0PSIwIiBmaXQtbWFyZ2luLXJpZ2h0PSIwIiBmaXQtbWFyZ2luLWJvdHRvbT0iMCIvPiYjeGE7ICA8ZGVmcyBpZD0iZGVmczIiLz4mI3hhOyAgPGcgaW5rc2NhcGU6bGFiZWw9IkxheWVyIDEiIGlua3NjYXBlOmdyb3VwbW9kZT0ibGF5ZXIiIGlkPSJsYXllcjEiIHRyYW5zZm9ybT0idHJhbnNsYXRlKDI1OC42MTk3NSwxNi42Njc3MTUpIj4mI3hhOyAgICA8cGF0aCBpZD0icGF0aDE3MzYyIiBzdHlsZT0ib3BhY2l0eToxO2ZpbGw6IzQyODVmNDtmaWxsLW9wYWNpdHk6MTtzdHJva2U6bm9uZTtzdHJva2Utd2lkdGg6MC45OTk5OTlweDtzdHJva2UtbGluZWNhcDpidXR0O3N0cm9rZS1saW5lam9pbjptaXRlcjtzdHJva2Utb3BhY2l0eToxIiBkPSJNIDE0MS40MTc5Nyw0LjExMTMyODEgMTI0LjQwMjM0LDI0LjM3NSBjIDU3Ljg5NTM3LDQ4LjYxNjQyNiA4My40MTQwNyw5Ni4wNjQ2NyA4My40MTQwNywxNjMuOTQzMzYgMCw3Mi4zMTIyOCAtMzYuMTA3MzEsMTI0LjgyOTc3IC04Mi4wMTk1MywxNjYuMDQ4ODMgbCAxNy42Nzk2OCwxOS42ODc1IGMgNDkuMjAyOTksLTQ0LjE3MzQyIDkwLjc5Njg4LC0xMDQuNDk4MzcgOTAuNzk2ODgsLTE4NS43MzYzMyAwLC03NC44ODE1MiAtMzEuMTU5NDEsLTEzMi4zOTkwMjIgLTkyLjg1NTQ3LC0xODQuMjA3MDMxOSB6IE0gOTYuNTU2NjQxLDc1Ljg4NDc2NiBWIDEwMi4zNDE4IEggMTY2LjQ4MzA1IEMgMTYyLjM5Mjc0LDk0LjU1NDQyIDE1OC40NTE0Myw4Ni44NDE1NDIgMTQ4LjAyMjMzLDc1Ljg4NDc2NiBaIE0gMzE3Ljc3OTMsMjAyLjMwNjY0IHYgMzIuMjkyOTcgbCA1OS45OTAyMywtNDUuNTE3NTggLTU5Ljk5MDIzLC00NS41MTc1OCB2IDMyLjI4NTE2IGggLTY0LjQ3NDYxIHYgMjYuNDU3MDMgeiBNIDUwLjA1ODU5NCwxNzUuODQ5NjEgdiAyNi40NTcwMyBIIDE4Ny4yODEyNSBjIDEuMTU3NDUsLTguMDQ3MzcgMS4yODIzMSwtMTYuNzgzMTUgMCwtMjYuNDU3MDMgeiBtIDQ3LjAzNzEwOSwxMDAuMDQ2ODcgdiAyNi40NTcwNCBoIDUwLjY4MjY3NyBjIDguMDE2NTcsLTguMDE0NjYgMTQuNDYxNjksLTE2LjgxNTA0IDE5LjIyMzU3LC0yNi40NTcwNCB6IiB0cmFuc2Zvcm09Im1hdHJpeCgwLjI2NDU4MzMzLDAsMCwwLjI2NDU4MzMzLC0yNTguNjE5NzUsLTE2LjY2NzcxNSkiIHNvZGlwb2RpOm5vZGV0eXBlcz0iY2NzY2NzY2NjY2NjY2NjY2NjY2NjY2NjY2NjY2NjIi8+JiN4YTsgICAgPHBhdGggaWQ9InBhdGgxNjI3MS03IiBzdHlsZT0iY29sb3I6IzAwMDAwMDtvcGFjaXR5OjE7ZmlsbDojNjY5ZGY2O3N0cm9rZS1saW5lam9pbjpyb3VuZDstaW5rc2NhcGUtc3Ryb2tlOm5vbmU7ZmlsbC1vcGFjaXR5OjEiIGQ9Im0gLTIzNy45NTQwOCw1MS45MDU2ODYgYyAtNC4zNDYzLDEwZS03IC03LjkyMzgyLDMuNTc3NTIxIC03LjkyMzgyLDcuOTIzODI4IDAsNC4zNDYzMDcgMy41Nzc1Miw3LjkyMzgyOCA3LjkyMzgyLDcuOTIzODI4IDQuMzQ2MzEsMCA3LjkyMzgzLC0zLjU3NzUyMSA3LjkyMzgzLC03LjkyMzgyOCAwLC00LjM0NjMwNyAtMy41Nzc1MiwtNy45MjM4MjcgLTcuOTIzODMsLTcuOTIzODI4IHogbSAwLDUgYyAxLjY0NDExLDAgMi45MjM4MywxLjI3OTcxOCAyLjkyMzgzLDIuOTIzODI4IDAsMS42NDQxMSAtMS4yNzk3MiwyLjkyMzgyOCAtMi45MjM4MywyLjkyMzgyOCAtMS42NDQxMSwwIC0yLjkyMzgyLC0xLjI3OTcxOCAtMi45MjM4MiwtMi45MjM4MjggMCwtMS42NDQxMSAxLjI3OTcxLC0yLjkyMzgyOCAyLjkyMzgyLC0yLjkyMzgyOCB6IG0gLTEyLjc4NzYxLC0zMS40ODg1OTMgYyAtNC4zNDYzLDEwZS03IC03LjkyMzgyLDMuNTc3NTIxIC03LjkyMzgyLDcuOTIzODI4IDAsNC4zNDYzMDcgMy41Nzc1Miw3LjkyMzgyOCA3LjkyMzgyLDcuOTIzODI4IDQuMzQ2MzEsMCA3LjkyMzgzLC0zLjU3NzUyMSA3LjkyMzgzLC03LjkyMzgyOCAwLC00LjM0NjMwNyAtMy41Nzc1MiwtNy45MjM4MjcgLTcuOTIzODMsLTcuOTIzODI4IHogbSAwLDUgYyAxLjY0NDExLDAgMi45MjM4MywxLjI3OTcxOCAyLjkyMzgzLDIuOTIzODI4IDAsMS42NDQxMSAtMS4yNzk3MiwyLjkyMzgyOCAtMi45MjM4MywyLjkyMzgyOCAtMS42NDQxMSwwIC0yLjkyMzgyLC0xLjI3OTcxOCAtMi45MjM4MiwtMi45MjM4MjggMCwtMS42NDQxMSAxLjI3OTcxLC0yLjkyMzgyOCAyLjkyMzgyLC0yLjkyMzgyOCB6IG0gMTIuNjE2NTIsLTMxLjQzMTQ5MjkgYyAtNC4zNDYzLDZlLTcgLTcuOTIzODIsMy41Nzc1MjA4IC03LjkyMzgyLDcuOTIzODI4MSAwLDQuMzQ2MzA2OCAzLjU3NzUyLDcuOTIzODI3OCA3LjkyMzgyLDcuOTIzODI3OCA0LjM0NjMxLDAgNy45MjM4MywtMy41Nzc1MjEgNy45MjM4MywtNy45MjM4Mjc4IDAsLTQuMzQ2MzA3MyAtMy41Nzc1MiwtNy45MjM4Mjc1IC03LjkyMzgzLC03LjkyMzgyODEgeiBtIDAsNSBjIDEuNjQ0MTEsMmUtNyAyLjkyMzgzLDEuMjc5NzE4NCAyLjkyMzgzLDIuOTIzODI4MSAwLDEuNjQ0MTA5NiAtMS4yNzk3MiwyLjkyMzgyNzkgLTIuOTIzODMsMi45MjM4Mjc5IC0xLjY0NDExLDAgLTIuOTIzODIsLTEuMjc5NzE4MyAtMi45MjM4MiwtMi45MjM4Mjc5IDAsLTEuNjQ0MTA5NyAxLjI3OTcxLC0yLjkyMzgyNzkgMi45MjM4MiwtMi45MjM4MjgxIHoiLz4mI3hhOyAgPC9nPiYjeGE7PC9zdmc+;" parent="KsHvrcX7beHajzNwPQLE-1" vertex="1">
          <mxGeometry x="81.81" y="77.08400000000003" width="48.19345661450925" height="48.19345661450925" as="geometry" />
        </mxCell>
        <mxCell id="I-YmXY6BXZ7hVWp1rc-H-1" value="Prometheus" style="sketch=0;html=1;verticalAlign=top;labelPosition=center;verticalLabelPosition=bottom;align=center;spacingTop=-6;fontSize=11;fontStyle=1;fontColor=#999999;shape=image;aspect=fixed;imageAspect=0;image=data:image/svg+xml,PHN2ZyB4bWxucz0iaHR0cDovL3d3dy53My5vcmcvMjAwMC9zdmciIHhtbG5zOnY9Imh0dHBzOi8vdmVjdGEuaW8vbmFubyIgd2lkdGg9IjIwIiBoZWlnaHQ9IjIwIiB2aWV3Qm94PSIwIDAgMjAgMjAiPiYjeGE7CTxzdHlsZSB0eXBlPSJ0ZXh0L2NzcyI+JiN4YTsJLnN0MHtmaWxsOiM0Mjg1ZjQ7fSYjeGE7CS5zdDF7ZmlsbDojNjY5ZGY2O30mI3hhOwkuc3Qye2ZpbGw6I2FlY2JmYTt9JiN4YTsJPC9zdHlsZT4mI3hhOwk8cGF0aCBjbGFzcz0ic3QyIiBkPSJNNyA3aDZ2Nkg3eiIvPiYjeGE7CTxwYXRoIGNsYXNzPSJzdDEiIGQ9Ik05IDBoMnY0SDl6TTUgMGgydjRINXptOCAwaDJ2NGgtMnoiLz4mI3hhOwk8cGF0aCBjbGFzcz0ic3QwIiBkPSJNOSAxNmgydjRIOXptLTQgMGgydjRINXptOCAwaDJ2NGgtMnptMy01VjloNHYyem0wIDR2LTJoNHYyem0wLThWNWg0djJ6Ii8+JiN4YTsJPHBhdGggY2xhc3M9InN0MSIgZD0iTTAgMTFWOWg0djJ6bTAgNHYtMmg0djJ6bTAtOFY1aDR2MnoiLz4mI3hhOwk8cGF0aCBjbGFzcz0ic3QyIiBkPSJNMyAzdjE0aDE0VjN6bTEyIDEySDVWNWgxMHoiLz4mI3hhOwk8cGF0aCBjbGFzcz0ic3QxIiBkPSJNMTAgMTBsLTMgM2g2eiIvPiYjeGE7CTxwYXRoIGNsYXNzPSJzdDAiIGQ9Ik0xMyA3bC0zIDMgMyAzeiIvPiYjeGE7PC9zdmc+;" vertex="1" parent="KsHvrcX7beHajzNwPQLE-1">
          <mxGeometry x="192" y="240" width="42" height="42" as="geometry" />
        </mxCell>
        <mxCell id="KsHvrcX7beHajzNwPQLE-20" value="" style="outlineConnect=0;dashed=0;verticalLabelPosition=bottom;verticalAlign=top;align=center;html=1;shape=mxgraph.aws3.internet_3;fillColor=#D2D3D3;gradientColor=none;" parent="1" vertex="1">
          <mxGeometry x="100" y="153.28" width="79.5" height="54" as="geometry" />
        </mxCell>
        <mxCell id="KsHvrcX7beHajzNwPQLE-23" style="edgeStyle=orthogonalEdgeStyle;rounded=0;orthogonalLoop=1;jettySize=auto;html=1;" parent="1" source="KsHvrcX7beHajzNwPQLE-9" target="KsHvrcX7beHajzNwPQLE-20" edge="1">
          <mxGeometry relative="1" as="geometry" />
        </mxCell>
        <mxCell id="KsHvrcX7beHajzNwPQLE-56" value="" style="group" parent="1" vertex="1" connectable="0">
          <mxGeometry x="410" y="195.75456140350877" width="143.85000000000002" height="73.05350877192986" as="geometry" />
        </mxCell>
        <mxCell id="KsHvrcX7beHajzNwPQLE-57" style="edgeStyle=orthogonalEdgeStyle;rounded=0;orthogonalLoop=1;jettySize=auto;html=1;entryX=0;entryY=0.75;entryDx=0;entryDy=0;" parent="KsHvrcX7beHajzNwPQLE-56" source="KsHvrcX7beHajzNwPQLE-58" target="KsHvrcX7beHajzNwPQLE-61" edge="1">
          <mxGeometry relative="1" as="geometry" />
        </mxCell>
        <mxCell id="KsHvrcX7beHajzNwPQLE-58" value="&lt;div&gt;Internal Load&lt;/div&gt;&lt;div&gt;Balancer&lt;br&gt;&lt;/div&gt;" style="editableCssRules=.*;html=1;shape=image;verticalLabelPosition=bottom;labelBackgroundColor=#ffffff;verticalAlign=top;aspect=fixed;imageAspect=0;image=data:image/svg+xml,PHN2ZyB4bWxucz0iaHR0cDovL3d3dy53My5vcmcvMjAwMC9zdmciIHhtbG5zOnY9Imh0dHBzOi8vdmVjdGEuaW8vbmFubyIgd2lkdGg9IjIwIiBoZWlnaHQ9IjIwIiB2aWV3Qm94PSIwIDAgMjAgMjAiPiYjeGE7CTxzdHlsZSB0eXBlPSJ0ZXh0L2NzcyI+JiN4YTsJLnN0MHtmaWxsOiM0Mjg1ZjQ7fSYjeGE7CS5zdDF7ZmlsbDojNjY5ZGY2O30mI3hhOwkuc3Qye2ZpbGw6I2FlY2JmYTt9JiN4YTsJPC9zdHlsZT4mI3hhOwk8cGF0aCBjbGFzcz0ic3QxIiBkPSJNMTYgMTBoMnY0aC0yem0tNyAwaDJ2NEg5em0tNyAwaDJ2NEgyeiIvPiYjeGE7CTxwYXRoIGNsYXNzPSJzdDAiIGQ9Ik05IDVoMnY0SDl6Ii8+JiN4YTsJPHBhdGggY2xhc3M9InN0MSIgZD0iTTIgOWgxNnYySDJ6Ii8+JiN4YTsJPHBhdGggY2xhc3M9InN0MiIgZD0iTTQgMGgxMnY1SDR6Ii8+JiN4YTsJPHBhdGggY2xhc3M9InN0MSIgZD0iTTEwIDBoNnY1aC02eiIvPiYjeGE7CTxwYXRoIGNsYXNzPSJzdDIiIGQ9Ik0xNCAxNGg2djZoLTZ6TTAgMTRoNnY2SDB6Ii8+JiN4YTsJPHBhdGggY2xhc3M9InN0MSIgZD0iTTMgMTRoM3Y2SDN6Ii8+JiN4YTsJPHBhdGggY2xhc3M9InN0MiIgZD0iTTcgMTRoNnY2SDd6Ii8+JiN4YTsJPHBhdGggY2xhc3M9InN0MSIgZD0iTTEwIDE0aDN2NmgtM3ptNyAwaDN2NmgtM3oiLz4mI3hhOzwvc3ZnPg==;" parent="KsHvrcX7beHajzNwPQLE-56" vertex="1">
          <mxGeometry y="13.494956140350835" width="26.602631578947367" height="26.602631578947367" as="geometry" />
        </mxCell>
        <mxCell id="KsHvrcX7beHajzNwPQLE-59" value="" style="group" parent="KsHvrcX7beHajzNwPQLE-56" vertex="1" connectable="0">
          <mxGeometry x="106" width="37.85000000000002" height="73.05350877192983" as="geometry" />
        </mxCell>
        <mxCell id="KsHvrcX7beHajzNwPQLE-60" value="OpenSearch" style="sketch=0;html=1;verticalAlign=top;labelPosition=center;verticalLabelPosition=bottom;align=center;spacingTop=-6;fontSize=11;fontStyle=1;fontColor=#999999;shape=image;aspect=fixed;imageAspect=0;image=data:image/svg+xml,PHN2ZyB4bWxucz0iaHR0cDovL3d3dy53My5vcmcvMjAwMC9zdmciIHhtbG5zOnY9Imh0dHBzOi8vdmVjdGEuaW8vbmFubyIgd2lkdGg9IjIwIiBoZWlnaHQ9IjIwIiB2aWV3Qm94PSIwIDAgMjAgMjAiPiYjeGE7CTxzdHlsZSB0eXBlPSJ0ZXh0L2NzcyI+JiN4YTsJLnN0MHtmaWxsOiM0Mjg1ZjQ7fSYjeGE7CS5zdDF7ZmlsbDojNjY5ZGY2O30mI3hhOwkuc3Qye2ZpbGw6I2FlY2JmYTt9JiN4YTsJPC9zdHlsZT4mI3hhOwk8cGF0aCBjbGFzcz0ic3QyIiBkPSJNNyA3aDZ2Nkg3eiIvPiYjeGE7CTxwYXRoIGNsYXNzPSJzdDEiIGQ9Ik05IDBoMnY0SDl6TTUgMGgydjRINXptOCAwaDJ2NGgtMnoiLz4mI3hhOwk8cGF0aCBjbGFzcz0ic3QwIiBkPSJNOSAxNmgydjRIOXptLTQgMGgydjRINXptOCAwaDJ2NGgtMnptMy01VjloNHYyem0wIDR2LTJoNHYyem0wLThWNWg0djJ6Ii8+JiN4YTsJPHBhdGggY2xhc3M9InN0MSIgZD0iTTAgMTFWOWg0djJ6bTAgNHYtMmg0djJ6bTAtOFY1aDR2MnoiLz4mI3hhOwk8cGF0aCBjbGFzcz0ic3QyIiBkPSJNMyAzdjE0aDE0VjN6bTEyIDEySDVWNWgxMHoiLz4mI3hhOwk8cGF0aCBjbGFzcz0ic3QxIiBkPSJNMTAgMTBsLTMgM2g2eiIvPiYjeGE7CTxwYXRoIGNsYXNzPSJzdDAiIGQ9Ik0xMyA3bC0zIDMgMyAzeiIvPiYjeGE7PC9zdmc+;" parent="KsHvrcX7beHajzNwPQLE-59" vertex="1">
          <mxGeometry y="36.53157894736843" width="36.521929824561404" height="36.521929824561404" as="geometry" />
        </mxCell>
        <mxCell id="KsHvrcX7beHajzNwPQLE-61" value="" style="sketch=0;html=1;verticalAlign=top;labelPosition=center;verticalLabelPosition=bottom;align=center;spacingTop=-6;fontSize=11;fontStyle=1;fontColor=#999999;shape=image;aspect=fixed;imageAspect=0;image=data:image/svg+xml,PHN2ZyB4bWxucz0iaHR0cDovL3d3dy53My5vcmcvMjAwMC9zdmciIHhtbG5zOnY9Imh0dHBzOi8vdmVjdGEuaW8vbmFubyIgd2lkdGg9IjIwIiBoZWlnaHQ9IjIwIiB2aWV3Qm94PSIwIDAgMjAgMjAiPiYjeGE7CTxzdHlsZSB0eXBlPSJ0ZXh0L2NzcyI+JiN4YTsJLnN0MHtmaWxsOiM0Mjg1ZjQ7fSYjeGE7CS5zdDF7ZmlsbDojNjY5ZGY2O30mI3hhOwkuc3Qye2ZpbGw6I2FlY2JmYTt9JiN4YTsJPC9zdHlsZT4mI3hhOwk8cGF0aCBjbGFzcz0ic3QyIiBkPSJNNyA3aDZ2Nkg3eiIvPiYjeGE7CTxwYXRoIGNsYXNzPSJzdDEiIGQ9Ik05IDBoMnY0SDl6TTUgMGgydjRINXptOCAwaDJ2NGgtMnoiLz4mI3hhOwk8cGF0aCBjbGFzcz0ic3QwIiBkPSJNOSAxNmgydjRIOXptLTQgMGgydjRINXptOCAwaDJ2NGgtMnptMy01VjloNHYyem0wIDR2LTJoNHYyem0wLThWNWg0djJ6Ii8+JiN4YTsJPHBhdGggY2xhc3M9InN0MSIgZD0iTTAgMTFWOWg0djJ6bTAgNHYtMmg0djJ6bTAtOFY1aDR2MnoiLz4mI3hhOwk8cGF0aCBjbGFzcz0ic3QyIiBkPSJNMyAzdjE0aDE0VjN6bTEyIDEySDVWNWgxMHoiLz4mI3hhOwk8cGF0aCBjbGFzcz0ic3QxIiBkPSJNMTAgMTBsLTMgM2g2eiIvPiYjeGE7CTxwYXRoIGNsYXNzPSJzdDAiIGQ9Ik0xMyA3bC0zIDMgMyAzeiIvPiYjeGE7PC9zdmc+;" parent="KsHvrcX7beHajzNwPQLE-59" vertex="1">
          <mxGeometry width="36.521929824561404" height="36.521929824561404" as="geometry" />
        </mxCell>
        <mxCell id="I-YmXY6BXZ7hVWp1rc-H-2" style="edgeStyle=orthogonalEdgeStyle;rounded=0;orthogonalLoop=1;jettySize=auto;html=1;" edge="1" parent="1" source="I-YmXY6BXZ7hVWp1rc-H-1" target="KsHvrcX7beHajzNwPQLE-58">
          <mxGeometry relative="1" as="geometry" />
        </mxCell>
      </root>
    </mxGraphModel>
  </diagram>
</mxfile>
